<?xml version="1.0" standalone="no"?>
<!DOCTYPE svg PUBLIC "-//W3C//DTD SVG 20010904//EN"
 "http://www.w3.org/TR/2001/REC-SVG-20010904/DTD/svg10.dtd">
<svg version="1.0" xmlns="http://www.w3.org/2000/svg"
 width="191.000000pt" height="191.000000pt" viewBox="0 0 191.000000 191.000000"
 preserveAspectRatio="xMidYMid meet">
<metadata>
Created by potrace 1.11, written by Peter Selinger 2001-2013
</metadata>
<g transform="translate(0.000000,191.000000) scale(0.100000,-0.100000)"
fill="#000000" stroke="none">
<path d="M780 1836 c-351 -75 -617 -331 -702 -676 -27 -107 -29 -290 -5 -398
33 -149 113 -301 219 -416 308 -334 812 -386 1184 -121 86 62 202 189 253 279
293 514 30 1153 -541 1317 -95 27 -313 35 -408 15z m-88 -699 c-19 -22 -20
-50 -21 -334 -1 -171 -5 -273 -11 -273 -5 0 -12 12 -15 28 -21 101 -51 148
-180 287 l-66 70 3 -165 c3 -139 6 -170 21 -193 l17 -27 -50 0 -51 0 18 33
c16 28 18 56 15 237 -1 114 -7 209 -12 214 -17 17 -11 21 35 21 44 0 45 -1 45
-31 0 -25 18 -50 98 -135 l97 -105 7 70 c9 92 -5 255 -23 267 -16 10 -15 11
35 38 42 22 57 21 38 -2z m625 -119 c29 -17 31 -21 21 -44 l-12 -25 -15 25
c-9 14 -30 33 -49 42 -31 14 -35 14 -66 -6 -56 -34 -71 -78 -71 -210 0 -99 3
-121 22 -155 46 -85 112 -116 182 -84 45 20 47 8 3 -15 -74 -37 -135 -25 -189
38 -108 122 -65 391 72 452 33 15 55 11 102 -18z m245 -149 c53 -28 75 -166
39 -245 -34 -75 -88 -94 -133 -46 -35 35 -48 72 -48 130 0 70 17 118 51 146
33 28 59 32 91 15z"/>
<path d="M1454 825 c-37 -57 -9 -189 48 -229 32 -23 54 -20 77 10 25 32 29
116 7 168 -31 74 -100 100 -132 51z"/>
</g>
</svg>
